<svg xmlns="http://www.w3.org/2000/svg" viewBox="0 0 64 64" role="img" aria-label="WC26">
  <defs>
    <linearGradient id="g" x1="10" y1="8" x2="56" y2="58" gradientUnits="userSpaceOnUse">
      <stop stop-color="#5fd0c5"/>
      <stop offset="0.56" stop-color="#0f766e"/>
      <stop offset="1" stop-color="#071412"/>
    </linearGradient>
    <filter id="s" x="-20%" y="-20%" width="140%" height="140%">
      <feDropShadow dx="0" dy="4" stdDeviation="4" flood-color="#000" flood-opacity="0.35"/>
    </filter>
  </defs>
  <rect width="64" height="64" rx="16" fill="#071412"/>
  <rect x="4" y="4" width="56" height="56" rx="14" fill="url(#g)"/>
  <path d="M11 46c7-7 14-10 21-10s14 3 21 10" fill="none" stroke="#e8fff8" stroke-width="3.2" stroke-linecap="round" opacity="0.92"/>
  <path d="M18 16h28l-4 24H22z" fill="#071412" opacity="0.32"/>
  <g filter="url(#s)">
    <circle cx="32" cy="31" r="14" fill="#effffb"/>
    <path d="M32 18.4l4.5 8.2 9.2 1.7-6.4 6.8 1.2 9.3-8.5-4-8.5 4 1.2-9.3-6.4-6.8 9.2-1.7z" fill="#0f766e"/>
    <path d="M32 18.4v22" stroke="#071412" stroke-width="1.35" opacity="0.34"/>
    <path d="M18.5 28.3l13.5 12 13.5-12" fill="none" stroke="#071412" stroke-width="1.35" opacity="0.24"/>
  </g>
</svg>
